<svg height="480pt" viewBox="-40 0 480 480.0013" width="480pt" xmlns="http://www.w3.org/2000/svg"><path d="m176.003906 240v-68.320312c64.15625 14.480468 112 87.761718 112 156.320312-.015625 72.4375-53.835937 133.585938-125.683594 142.800781 7.199219.804688 14.4375 1.207031 21.683594 1.199219 115.980469-1.097656 209.109375-96.015625 208-212 0-117.121094-93.121094-196-208-196-2.640625 0-5.363281.082031-8 .160156v-56.160156l-168 120zm0 0" fill="#55c9f4"/><path d="m184.003906 56v-48c0-2.996094-1.675781-5.742188-4.339844-7.113281-2.664062-1.371094-5.871093-1.140625-8.308593.601562l-168 120c-2.140625 1.527344-3.3945315 4.007813-3.355469 6.640625.0429688 2.628906 1.375 5.070313 3.5625 6.527344l168 112c2.453125 1.636719 5.613281 1.792969 8.214844.398438 2.601562-1.390626 4.226562-4.101563 4.226562-7.054688v-57.757812c52.957032 17.972656 96 82.0625 96 145.757812-.066406 68.257812-50.6875 125.910156-118.363281 134.800781-4.417969-.03125-8.023437 3.527344-8.054687 7.945313-.03125 4.417968 3.527343 8.023437 7.945312 8.054687 7.460938.816407 14.964844 1.21875 22.472656 1.199219 119.101563 0 216-98.695312 216-220 0-116.304688-92.859375-204-216-204zm33.269532 405.199219c48.527343-26.765625 78.679687-77.78125 78.730468-133.199219 0-75.785156-53.042968-149.40625-118.242187-164.128906-.578125-.125-1.167969-.191406-1.757813-.191406-4.421875 0-8 3.582031-8 8v53.367187l-145.921875-97.269531 145.921875-104.234375v40.617187c.027344 2.171875.929688 4.238282 2.503906 5.738282 1.597657 1.480468 3.707032 2.289062 5.886719 2.253906 2.511719-.070313 5.09375-.152344 7.609375-.152344 115.886719 0 200 79.066406 200 188 .628906 98.648438-69.683594 183.496094-166.730468 201.199219zm0 0" fill="#006d95"/></svg>